REM DIRINDEX 1\5,1\2\6,1\2\7,1\3\8,1\3\9,1\4\10,1\4\11,1\4\12
REM DIRNAME cjc026,folder01,folder02,folder03,folder04,folder05,folder06,folder07,folder08,folder09,folder10,folder11
TITLE ""
FILE "EJE_DB3000_5th_5C_05.mp3" MP3
  TRACK 01 AUDIO
    TITLE "0:"
    INDEX 01 00:00:00
  TRACK 02 AUDIO
    TITLE "10:cjc026_10281"
    INDEX 01 00:00:08
  TRACK 03 AUDIO
    TITLE "0:"
    INDEX 01 00:01:06
  TRACK 04 AUDIO
    TITLE "11:cjc026_10282"
    INDEX 01 00:01:54
  TRACK 05 AUDIO
    TITLE "0:"
    INDEX 01 00:03:09
  TRACK 06 AUDIO
    TITLE "12:cjc026_10283"
    INDEX 01 00:03:45
  TRACK 07 AUDIO
    TITLE "0:"
    INDEX 01 00:04:42
  TRACK 08 AUDIO
    TITLE "10:cjc026_10284"
    INDEX 01 00:05:13
  TRACK 09 AUDIO
    TITLE "0:"
    INDEX 01 00:06:22
  TRACK 10 AUDIO
    TITLE "11:cjc026_10285"
    INDEX 01 00:06:57
  TRACK 11 AUDIO
    TITLE "0:"
    INDEX 01 00:08:02
  TRACK 12 AUDIO
    TITLE "12:cjc026_10286"
    INDEX 01 00:08:37
  TRACK 13 AUDIO
    TITLE "0:"
    INDEX 01 00:09:45
  TRACK 14 AUDIO
    TITLE "10:cjc026_10287"
    INDEX 01 00:10:06
  TRACK 15 AUDIO
    TITLE "0:"
    INDEX 01 00:11:44
  TRACK 16 AUDIO
    TITLE "11:cjc026_10288"
    INDEX 01 00:12:01
  TRACK 17 AUDIO
    TITLE "0:"
    INDEX 01 00:13:48
  TRACK 18 AUDIO
    TITLE "12:cjc026_10289"
    INDEX 01 00:14:05
  TRACK 19 AUDIO
    TITLE "0:"
    INDEX 01 00:15:44
  TRACK 20 AUDIO
    TITLE "10:cjc026_10290"
    INDEX 01 00:16:04
  TRACK 21 AUDIO
    TITLE "0:"
    INDEX 01 00:17:18
  TRACK 22 AUDIO
    TITLE "11:cjc026_10291"
    INDEX 01 00:17:56
  TRACK 23 AUDIO
    TITLE "0:"
    INDEX 01 00:19:19
  TRACK 24 AUDIO
    TITLE "12:cjc026_10292"
    INDEX 01 00:19:54
  TRACK 25 AUDIO
    TITLE "0:"
    INDEX 01 00:20:71
  TRACK 26 AUDIO
    TITLE "10:cjc026_10293"
    INDEX 01 00:21:34
  TRACK 27 AUDIO
    TITLE "0:"
    INDEX 01 00:22:45
  TRACK 28 AUDIO
    TITLE "11:cjc026_10294"
    INDEX 01 00:23:16
  TRACK 29 AUDIO
    TITLE "0:"
    INDEX 01 00:24:63
  TRACK 30 AUDIO
    TITLE "12:cjc026_10295"
    INDEX 01 00:25:23
  TRACK 31 AUDIO
    TITLE "0:"
    INDEX 01 00:26:37
  TRACK 32 AUDIO
    TITLE "10:cjc026_10296"
    INDEX 01 00:27:08
  TRACK 33 AUDIO
    TITLE "0:"
    INDEX 01 00:28:49
  TRACK 34 AUDIO
    TITLE "11:cjc026_10297"
    INDEX 01 00:29:12
  TRACK 35 AUDIO
    TITLE "0:"
    INDEX 01 00:30:45
  TRACK 36 AUDIO
    TITLE "12:cjc026_10298"
    INDEX 01 00:31:07
  TRACK 37 AUDIO
    TITLE "0:"
    INDEX 01 00:32:48
  TRACK 38 AUDIO
    TITLE "10:cjc026_10299"
    INDEX 01 00:33:11
  TRACK 39 AUDIO
    TITLE "0:"
    INDEX 01 00:34:28
  TRACK 40 AUDIO
    TITLE "11:cjc026_10300"
    INDEX 01 00:34:66
  TRACK 41 AUDIO
    TITLE "0:"
    INDEX 01 00:36:00
  TRACK 42 AUDIO
    TITLE "12:cjc026_10301"
    INDEX 01 00:36:37
  TRACK 43 AUDIO
    TITLE "0:"
    INDEX 01 00:37:54
  TRACK 44 AUDIO
    TITLE "10:cjc026_10302"
    INDEX 01 00:38:17
  TRACK 45 AUDIO
    TITLE "0:"
    INDEX 01 00:39:12
  TRACK 46 AUDIO
    TITLE "11:cjc026_10303"
    INDEX 01 00:39:61
  TRACK 47 AUDIO
    TITLE "0:"
    INDEX 01 00:41:38
  TRACK 48 AUDIO
    TITLE "12:cjc026_10304"
    INDEX 01 00:41:73
  TRACK 49 AUDIO
    TITLE "0:"
    INDEX 01 00:42:68
  TRACK 50 AUDIO
    TITLE "10:cjc026_10305"
    INDEX 01 00:43:42
  TRACK 51 AUDIO
    TITLE "0:"
    INDEX 01 00:44:61
  TRACK 52 AUDIO
    TITLE "11:cjc026_10306"
    INDEX 01 00:45:21
  TRACK 53 AUDIO
    TITLE "0:"
    INDEX 01 00:46:54
  TRACK 54 AUDIO
    TITLE "12:cjc026_10307"
    INDEX 01 00:47:14
  TRACK 55 AUDIO
    TITLE "0:"
    INDEX 01 00:48:34
  TRACK 56 AUDIO
    TITLE "10:cjc026_10308"
    INDEX 01 00:48:72
  TRACK 57 AUDIO
    TITLE "0:"
    INDEX 01 00:50:30
  TRACK 58 AUDIO
    TITLE "11:cjc026_10309"
    INDEX 01 00:50:67
  TRACK 59 AUDIO
    TITLE "0:"
    INDEX 01 00:52:20
  TRACK 60 AUDIO
    TITLE "12:cjc026_10310"
    INDEX 01 00:52:60
  TRACK 61 AUDIO
    TITLE "0:"
    INDEX 01 00:54:18
  TRACK 62 AUDIO
    TITLE "10:cjc026_10311"
    INDEX 01 00:54:54
  TRACK 63 AUDIO
    TITLE "0:"
    INDEX 01 00:56:12
  TRACK 64 AUDIO
    TITLE "11:cjc026_10312"
    INDEX 01 00:56:49
  TRACK 65 AUDIO
    TITLE "0:"
    INDEX 01 00:57:61
  TRACK 66 AUDIO
    TITLE "12:cjc026_10313"
    INDEX 01 00:58:21
  TRACK 67 AUDIO
    TITLE "0:"
    INDEX 01 00:59:54
  TRACK 68 AUDIO
    TITLE "10:cjc026_10314"
    INDEX 01 01:00:14
  TRACK 69 AUDIO
    TITLE "0:"
    INDEX 01 01:01:58
  TRACK 70 AUDIO
    TITLE "11:cjc026_10315"
    INDEX 01 01:02:18
  TRACK 71 AUDIO
    TITLE "0:"
    INDEX 01 01:03:37
  TRACK 72 AUDIO
    TITLE "12:cjc026_10316"
    INDEX 01 01:03:72
  TRACK 73 AUDIO
    TITLE "0:"
    INDEX 01 01:05:41
  TRACK 74 AUDIO
    TITLE "10:cjc026_10317"
    INDEX 01 01:06:04
  TRACK 75 AUDIO
    TITLE "0:"
    INDEX 01 01:07:45
  TRACK 76 AUDIO
    TITLE "11:cjc026_10318"
    INDEX 01 01:08:08
  TRACK 77 AUDIO
    TITLE "0:"
    INDEX 01 01:09:30
  TRACK 78 AUDIO
    TITLE "12:cjc026_10319"
    INDEX 01 01:09:65
  TRACK 79 AUDIO
    TITLE "0:"
    INDEX 01 01:11:31
  TRACK 80 AUDIO
    TITLE "10:cjc026_10320"
    INDEX 01 01:11:69
  TRACK 81 AUDIO
    TITLE "0:"
    INDEX 01 01:13:35
  TRACK 82 AUDIO
    TITLE "11:cjc026_10321"
    INDEX 01 01:13:73
  TRACK 83 AUDIO
    TITLE "0:"
    INDEX 01 01:15:34
  TRACK 84 AUDIO
    TITLE "12:cjc026_10322"
    INDEX 01 01:15:71
  TRACK 85 AUDIO
    TITLE "0:"
    INDEX 01 01:17:35
